<svg width="150" height="50" viewBox="0 0 150 50" fill="none" xmlns="http://www.w3.org/2000/svg">
<mask id="mask0_3708_56431" style="mask-type:alpha" maskUnits="userSpaceOnUse" x="0" y="0" width="150" height="50">
<rect width="150" height="50" fill="#D9D9D9"/>
</mask>
<g mask="url(#mask0_3708_56431)">
<path fill-rule="evenodd" clip-rule="evenodd" d="M78.3845 14.8061C78.3845 15.3079 78.2368 15.7984 77.9601 16.2156C77.6835 16.6327 77.2902 16.9579 76.8301 17.1499C76.3699 17.3419 75.8636 17.3922 75.3752 17.2943C74.8867 17.1964 74.438 16.9548 74.0858 16.6C73.7337 16.2452 73.4939 15.7932 73.3967 15.3011C73.2995 14.8089 73.3494 14.2989 73.54 13.8353C73.7306 13.3717 74.0533 12.9755 74.4674 12.6968C74.8815 12.418 75.3684 12.2692 75.8664 12.2692C76.1974 12.2682 76.5253 12.3331 76.8313 12.4602C77.1372 12.5874 77.4152 12.7742 77.6493 13.01C77.8833 13.2457 78.0688 13.5258 78.1949 13.8341C78.3211 14.1423 78.3856 14.4727 78.3845 14.8061ZM67.9962 19.9046V20.5321C67.521 20.0141 66.9399 19.606 66.2929 19.3362C65.646 19.0663 64.9487 18.941 64.2491 18.9689C63.2466 18.958 62.2522 19.152 61.3262 19.539C60.4001 19.926 59.5615 20.4981 58.861 21.2207C58.1604 21.9433 57.6125 22.8014 57.2504 23.7433C56.8882 24.6852 56.7192 25.6912 56.7537 26.7007C56.7182 27.7101 56.8861 28.7164 57.2473 29.6586C57.6086 30.6009 58.1556 31.4596 58.8554 32.1829C59.5552 32.9063 60.3932 33.4792 61.3189 33.8672C62.2446 34.2552 63.2388 34.4501 64.2413 34.4402C64.945 34.4728 65.647 34.3459 66.2955 34.0688C66.9441 33.7916 67.5226 33.3714 67.9884 32.839V33.5035C67.9874 33.5751 68.0006 33.6463 68.0274 33.7127C68.0541 33.7791 68.0938 33.8394 68.1441 33.8901C68.1944 33.9408 68.2543 33.9808 68.3202 34.0077C68.3861 34.0347 68.4567 34.048 68.5279 34.0469H71.6688V19.3354H68.5546C68.4127 19.3393 68.2778 19.3978 68.1775 19.4989C68.0771 19.6 68.0191 19.7359 68.0151 19.8788L67.9962 19.9046ZM67.9962 29.3126C67.6366 29.8118 67.1641 30.2173 66.6179 30.4958C66.0717 30.7743 65.4674 30.9176 64.8553 30.9139C62.375 30.9139 60.4786 29.3507 60.4786 26.7007C60.4786 24.0506 62.375 22.4874 64.8553 22.4874C65.4659 22.4921 66.0673 22.639 66.6122 22.9168C67.1571 23.1946 67.6308 23.5957 67.9962 24.0887V29.3216V29.3126ZM74.0023 19.36H77.7505V34.0391H74.0023V19.3354V19.36ZM129.578 18.9678C128.878 18.9399 128.181 19.0652 127.534 19.3351C126.887 19.6049 126.306 20.0129 125.83 20.531V12.2928H122.082V34.0368H125.222C125.364 34.0329 125.499 33.9744 125.599 33.8733C125.699 33.7722 125.757 33.6363 125.761 33.4934V32.8289C126.23 33.3552 126.808 33.7714 127.455 34.0481C128.101 34.3248 128.799 34.4552 129.501 34.4302C130.502 34.4379 131.495 34.2418 132.42 33.8537C133.345 33.4656 134.182 32.8934 134.882 32.1715C135.582 31.4495 136.13 30.5926 136.493 29.6522C136.856 28.7117 137.027 27.7071 136.996 26.6984C137.028 25.6895 136.858 24.6845 136.495 23.7436C136.132 22.8027 135.584 21.9455 134.884 21.2233C134.184 20.5012 133.346 19.929 132.421 19.5412C131.496 19.1534 130.503 18.958 129.501 18.9667L129.578 18.9678ZM128.945 30.8769C128.332 30.8857 127.726 30.7445 127.179 30.4657C126.632 30.1868 126.16 29.7785 125.804 29.2757V24.0416C126.181 23.5619 126.658 23.1703 127.2 22.8939C127.742 22.6174 128.337 22.4627 128.945 22.4404C131.425 22.4404 133.321 24.0035 133.321 26.6536C133.321 29.3037 131.425 30.8668 128.945 30.8668V30.8769ZM120.182 25.3347V34.0783H116.434V25.7717C116.434 23.348 115.685 22.3743 113.565 22.3743C112.993 22.3943 112.433 22.5327 111.917 22.7808C111.401 23.0289 110.942 23.3815 110.567 23.8164V34.0402H106.819V19.3354H109.764C109.906 19.3393 110.041 19.3978 110.141 19.4989C110.242 19.6 110.3 19.7359 110.304 19.8788V20.5063C110.821 19.9875 111.438 19.5811 112.117 19.3122C112.797 19.0434 113.524 18.9178 114.253 18.9432C115.735 18.888 117.185 19.3882 118.323 20.3472C119.642 21.442 120.144 22.846 120.144 25.3078L120.182 25.3347ZM97.8265 18.9701C97.1268 18.9421 96.4295 19.0674 95.7826 19.3373C95.1357 19.6072 94.5546 20.0152 94.0793 20.5332V12.295H90.3311V34.0368H93.472C93.6139 34.0329 93.7488 33.9744 93.8491 33.8733C93.9495 33.7722 94.0076 33.6363 94.0115 33.4934V32.8289C94.4813 33.3563 95.0606 33.7731 95.7081 34.0498C96.3557 34.3265 97.0557 34.4563 97.7586 34.4302C98.7603 34.4379 99.7532 34.2418 100.678 33.8537C101.602 33.4656 102.44 32.8934 103.14 32.1715C103.84 31.4495 104.388 30.5926 104.751 29.6522C105.114 28.7117 105.285 27.7071 105.254 26.6984C105.293 25.6879 105.127 24.6799 104.766 23.7361C104.406 22.7923 103.858 21.9324 103.156 21.2089C102.455 20.4854 101.615 19.9135 100.687 19.528C99.7586 19.1424 98.7623 18.9515 97.7586 18.9667L97.8265 18.9701ZM97.2014 30.8769C96.5883 30.8857 95.9824 30.7445 95.4353 30.4657C94.8883 30.1868 94.4165 29.7785 94.0604 29.2757V24.0416C94.438 23.5619 94.9143 23.1703 95.4565 22.8939C95.9988 22.6174 96.5941 22.4627 97.2014 22.4404C99.6817 22.4404 101.578 24.0035 101.578 26.6536C101.578 29.3037 99.6817 30.8668 97.2014 30.8668V30.8769ZM87.1022 18.9656C87.6781 18.9472 88.2536 19.0132 88.8106 19.1617V22.6353C88.8106 22.6353 85.6964 21.6011 83.7744 23.8052V34.0749H80.0262V19.3354H83.1672C83.309 19.3393 83.4439 19.3978 83.5442 19.4989C83.6446 19.6 83.7027 19.7359 83.7066 19.8788V20.5063C84.5953 19.5761 85.7995 19.0179 87.0789 18.9432L87.1022 18.9656ZM48.4631 32.709L47.8781 31.305L46.986 29.3104L46.9482 29.2723C44.2376 23.3211 41.3835 17.4373 38.3884 11.626L38.2683 11.4019L37.3452 9.53063C36.9634 8.76446 36.4958 8.04487 35.9515 7.38591C35.3593 6.63401 34.6045 6.02826 33.7446 5.61483C32.8848 5.2014 31.9426 4.99121 30.9898 5.00028C30.0436 5.00343 29.1094 5.21451 28.2525 5.6188C27.3955 6.02309 26.6364 6.61085 26.0281 7.34109C25.4969 8.00971 25.0303 8.72787 24.6345 9.48581L23.5857 11.5543C20.5882 17.4147 17.6941 23.3424 15.0192 29.2006L14.9814 29.2757C14.7589 29.9177 14.442 30.5755 14.1272 31.277C13.9322 31.705 13.7372 32.173 13.5422 32.681C13.0477 34.026 12.8881 35.4726 13.0772 36.8942C13.2858 38.3218 13.8599 39.6701 14.743 40.8062C15.6261 41.9423 16.7877 42.827 18.1135 43.3732C19.1075 43.7942 20.1761 44.0073 21.2544 43.9996C21.5903 43.9939 21.9257 43.9688 22.2588 43.9245C23.6261 43.7488 24.9441 43.2968 26.1338 42.5955C27.9409 41.5098 29.5628 40.1383 30.9376 38.5336C32.3209 40.1294 33.9414 41.4997 35.7413 42.5955C36.9309 43.297 38.249 43.749 39.6164 43.9245C39.9494 43.9688 40.2848 43.9938 40.6207 43.9996C41.6993 44.0109 42.7687 43.7977 43.7617 43.3732C45.0874 42.827 46.249 41.9423 47.1321 40.8062C48.0152 39.6701 48.5893 38.3218 48.7979 36.8942C49.0834 35.4974 48.9609 34.0472 48.4453 32.7191L48.4631 32.709ZM30.9921 34.7405C28.901 32.0826 27.5441 29.5905 27.0792 27.4761C26.8893 26.698 26.8485 25.8906 26.9591 25.0972C27.0358 24.5095 27.2488 23.9483 27.5808 23.4589C27.9692 22.9161 28.4822 22.476 29.076 22.1763C29.6698 21.8766 30.3269 21.7261 30.9909 21.7378C31.6565 21.712 32.3179 21.8555 32.9139 22.1552C33.5099 22.4548 34.0213 22.9009 34.4011 23.4522C34.7331 23.9415 34.9461 24.5028 35.0228 25.0905C35.1339 25.8839 35.0931 26.6914 34.9027 27.4694C34.4378 29.5379 33.082 31.9997 30.9898 34.7338L30.9921 34.7405ZM46.4544 36.5749C46.3086 37.5744 45.9062 38.5182 45.287 39.3128C44.6678 40.1074 43.8533 40.7253 42.9241 41.1052C41.9974 41.5001 40.9855 41.6482 39.9856 41.5355C38.9453 41.4058 37.9426 41.0614 37.0404 40.5237C35.3774 39.5121 33.8868 38.2374 32.6259 36.7486C35.1819 33.5841 36.7334 30.6976 37.3174 28.1181C37.5695 27.0299 37.6353 25.9063 37.512 24.7957C37.3681 23.8408 37.0093 22.9317 36.4632 22.1378C35.849 21.2548 35.0288 20.5375 34.0748 20.049C33.1207 19.5605 32.0621 19.3158 30.9921 19.3365C29.9275 19.3228 28.8754 19.5674 27.9244 20.0497C26.9735 20.5321 26.1518 21.2379 25.5287 22.1076C24.9826 22.9014 24.6238 23.8106 24.4799 24.7655C24.3161 25.8746 24.3824 27.0059 24.6745 28.0879C25.2596 30.6629 26.8479 33.592 29.366 36.7564C28.1139 38.2542 26.6218 39.5302 24.9515 40.5315C24.0493 41.0809 23.0438 41.4357 21.9985 41.5736C20.9997 41.6853 19.989 41.5507 19.0533 41.1814C18.1241 40.8015 17.3096 40.1836 16.6904 39.389C16.0712 38.5944 15.6688 37.6506 15.523 36.6511C15.4005 35.6305 15.5214 34.5953 15.8756 33.6312C15.9957 33.239 16.1826 32.876 16.3761 32.3852C16.6464 31.7577 16.9612 31.0943 17.2682 30.4298L17.306 30.3547C19.982 24.5279 22.8449 18.6059 25.8368 12.8217L25.9481 12.5415L26.8779 10.7442C27.1796 10.1246 27.5546 9.54407 27.9946 9.01518C28.3766 8.5629 28.8516 8.19965 29.3868 7.95054C29.9219 7.70143 30.5043 7.57241 31.0938 7.57241C31.6833 7.57241 32.2658 7.70143 32.8009 7.95054C33.336 8.19965 33.811 8.5629 34.1931 9.01518C34.611 9.54278 34.9657 10.1182 35.2497 10.7296L36.1795 12.527L36.2908 12.7511C39.236 18.5734 42.1144 24.4999 44.7827 30.3211V30.3592C45.0897 30.9867 45.3677 31.6882 45.6747 32.3146C45.8694 32.783 46.064 33.1751 46.1752 33.5606C46.497 34.5324 46.5895 35.5664 46.4455 36.5805L46.4544 36.5749Z" fill="#FF5A5F"/>
</g>
</svg>
