<svg width="150" height="50" viewBox="0 0 150 50" fill="none" xmlns="http://www.w3.org/2000/svg">
<mask id="mask0_3708_56428" style="mask-type:alpha" maskUnits="userSpaceOnUse" x="0" y="0" width="150" height="50">
<rect width="150" height="50" fill="#D9D9D9"/>
</mask>
<g mask="url(#mask0_3708_56428)">
<path d="M115.348 37C115.827 37.0005 116.302 36.9077 116.744 36.727C117.187 36.5462 117.59 36.2811 117.929 35.9467C118.268 35.6122 118.537 35.2151 118.721 34.7779C118.905 34.3407 119 33.872 119 33.3985C119 32.9251 118.907 32.4562 118.724 32.0187C118.541 31.5811 118.272 31.1834 117.934 30.8483C117.596 30.5132 117.194 30.2473 116.751 30.0657C116.309 29.884 115.834 29.7903 115.355 29.7899C114.388 29.7889 113.459 30.1678 112.774 30.8432C112.09 31.5186 111.704 32.4352 111.703 33.3913C111.702 34.3474 112.086 35.2648 112.769 35.9415C113.453 36.6183 114.38 36.999 115.348 37ZM111.696 23.5761H108.579C106.577 23.5761 105.499 25.0616 105.499 27.5326V36.4674H99.596V23.5761H97.088C95.0823 23.5761 94.008 25.0616 94.008 27.5326V36.4674H88.1047V18.808H94.008V21.4891C94.976 19.4094 96.3033 18.808 98.2723 18.808H105.503V21.4891C106.471 19.4094 107.795 18.808 109.764 18.808H111.696V23.5761ZM86.814 29.0145H74.4977C74.8203 30.9928 76.0743 32.1232 78.1863 32.1232C79.763 32.1232 80.8703 31.4891 81.2297 30.3587L86.4547 31.808C85.1677 34.8804 81.9813 36.75 78.1863 36.75C71.777 36.75 68.84 31.8406 68.84 27.6377C68.84 23.5072 71.4177 18.5616 77.8233 18.5616C84.6287 18.5616 86.8837 23.5761 86.8837 27.2862C86.8837 28.0978 86.847 28.6268 86.8103 29.0145H86.814ZM81.0867 25.5906C80.94 24.0688 79.8327 22.6558 77.827 22.6558C75.9643 22.6558 74.857 23.471 74.4977 25.5906H81.0867ZM58.5293 36.4638H63.7213L70.2003 18.8043H64.2603L61.107 29.0833L57.8877 18.8043H51.9733L58.5257 36.4638H58.5293ZM34.3293 36.4638H40.2033V23.5725H45.7913V36.4638H51.625V18.8043H40.2033V17.7101C40.2033 16.5072 41.065 15.7681 42.4253 15.7681H45.7913V11H41.45C37.1893 11 34.3257 13.5797 34.3257 17.3587V18.808H31V23.5761H34.3293V36.4674V36.4638Z" fill="black"/>
</g>
</svg>
