<svg width="150" height="50" viewBox="0 0 150 50" fill="none" xmlns="http://www.w3.org/2000/svg">
<mask id="mask0_3708_56434" style="mask-type:alpha" maskUnits="userSpaceOnUse" x="0" y="0" width="150" height="50">
<rect width="150" height="50" fill="#D9D9D9"/>
</mask>
<g mask="url(#mask0_3708_56434)">
<path d="M50.3582 21.95H39.2736V25.2242H47.1356C46.746 29.8073 42.9098 31.7745 39.2869 31.7745C38.1392 31.7795 37.002 31.5569 35.9417 31.1196C34.8813 30.6823 33.9191 30.0391 33.1113 29.2275C32.3034 28.416 31.666 27.4524 31.2363 26.3929C30.8066 25.3335 30.5933 24.1994 30.6087 23.057C30.6087 18.1002 34.4635 14.2839 39.2975 14.2839C43.0266 14.2839 45.2241 16.6504 45.2241 16.6504L47.526 14.276C47.526 14.276 44.5689 11 39.1771 11C32.3112 11 27 16.7685 27 22.9988C27 29.104 31.996 35.0575 39.3507 35.0575C45.8199 35.0575 50.5557 30.6455 50.5557 24.1217C50.5557 22.745 50.3547 21.95 50.3547 21.95H50.3582Z" fill="#4885ED"/>
<path d="M59.4393 19.5783C54.8903 19.5783 51.6305 23.1187 51.6305 27.2461C51.6305 31.436 54.7912 35.0417 59.4924 35.0417C63.7474 35.0417 67.233 31.8045 67.233 27.336C67.233 22.2241 63.1781 19.5783 59.4393 19.5783ZM59.4836 22.6154C61.7199 22.6154 63.8395 24.416 63.8395 27.3166C63.8395 30.1546 61.7288 32.0072 59.4729 32.0072C56.9939 32.0072 55.0462 30.0312 55.0462 27.2937C55.0462 24.6143 56.9762 22.6154 59.4906 22.6154H59.4836Z" fill="#DB3236"/>
<path d="M76.4212 19.5783C71.8723 19.5783 68.6124 23.1187 68.6124 27.2461C68.6124 31.436 71.7731 35.0417 76.4743 35.0417C80.7293 35.0417 84.215 31.8045 84.215 27.336C84.215 22.2241 80.1601 19.5783 76.4212 19.5783ZM76.4655 22.6154C78.7019 22.6154 80.8214 24.416 80.8214 27.3166C80.8214 30.1546 78.7107 32.0072 76.4549 32.0072C73.9759 32.0072 72.0281 30.0312 72.0281 27.2937C72.0281 24.6143 73.9582 22.6154 76.4726 22.6154H76.4655Z" fill="#F4C20D"/>
<path d="M93.0773 19.5871C88.902 19.5871 85.6209 23.2271 85.6209 27.3131C85.6209 31.9666 89.4253 35.0531 93.0047 35.0531C95.2181 35.0531 96.3956 34.1779 97.2544 33.1741V34.6988C97.2544 37.3667 95.6271 38.9646 93.1712 38.9646C90.7984 38.9646 89.6085 37.2081 89.1871 36.2121L86.2017 37.446C87.2606 39.6759 89.3925 42 93.196 42C97.3571 42 100.511 39.3974 100.511 33.9382V20.0515H97.2668V21.3612C96.2664 20.286 94.8958 19.5871 93.0791 19.5871H93.0773ZM93.3784 22.6189C95.4253 22.6189 97.5271 24.3587 97.5271 27.3298C97.5271 30.3502 95.4288 32.0142 93.3332 32.0142C91.1074 32.0142 89.0366 30.2162 89.0366 27.358C89.0366 24.3896 91.188 22.6189 93.3784 22.6189Z" fill="#4885ED"/>
<path d="M115.009 19.5686C111.071 19.5686 107.764 22.6886 107.764 27.2893C107.764 32.1596 111.45 35.0478 115.378 35.0478C118.665 35.0478 120.691 33.2587 121.886 31.6546L119.201 29.876C118.504 30.9513 117.339 32.0045 115.395 32.0045C113.212 32.0045 112.208 30.8147 111.586 29.6601L122 25.3591L121.469 24.0987C120.463 21.6309 118.115 19.5686 115.009 19.5686ZM115.145 22.5423C116.564 22.5423 117.585 23.2932 118.019 24.1939L111.063 27.0874C110.762 24.847 112.896 22.5423 115.136 22.5423H115.145Z" fill="#DB3236"/>
<path d="M102.791 34.5895H106.212V11.8003H102.791V34.5895Z" fill="#3CBA54"/>
</g>
</svg>
