<?xml version="1.0" encoding="utf-8"?><svg width="150" height="50" viewBox="0 0 150 50" fill="none" xmlns="http://www.w3.org/2000/svg">
<mask id="mask0_3708_56417" style="mask-type:alpha" maskUnits="userSpaceOnUse" x="0" y="0" width="150" height="50">
<rect width="150" height="50" fill="#D9D9D9"/>
</mask>
<g mask="url(#mask0_3708_56417)">
<path d="M70.5945 35.801H64.6883L68.3824 13.406H74.2883L70.5945 35.801Z" fill="#00579F"/>
<path d="M92.0049 13.9534C90.84 13.5003 88.9923 13 86.7076 13C80.875 13 76.7678 16.0494 76.7426 20.4091C76.6942 23.6256 79.6833 25.4122 81.9189 26.4847C84.2039 27.5806 84.9806 28.2959 84.9806 29.2728C84.9574 30.7731 83.1342 31.4647 81.4338 31.4647C79.0758 31.4647 77.8123 31.1081 75.8923 30.2734L75.1145 29.9156L74.2881 34.9428C75.6733 35.5615 78.2254 36.1106 80.875 36.1347C87.0722 36.1347 91.1068 33.1325 91.1546 28.4866C91.1781 25.9372 89.5998 23.9838 86.197 22.3875C84.1312 21.3628 82.8662 20.6719 82.8662 19.6234C82.8904 18.6703 83.9362 17.6941 86.268 17.6941C88.1881 17.6463 89.5988 18.0988 90.6675 18.5516L91.2017 18.7894L92.0049 13.9534V13.9534Z" fill="#00579F"/>
<path d="M99.854 27.8672C100.34 26.5807 102.212 21.6013 102.212 21.6013C102.187 21.6491 102.697 20.291 102.989 19.4572L103.402 21.3869C103.402 21.3869 104.52 26.7475 104.763 27.8672C103.84 27.8672 101.021 27.8672 99.854 27.8672ZM107.144 13.406H102.576C101.167 13.406 100.097 13.8107 99.489 15.2641L90.7162 35.8006H96.9133C96.9133 35.8006 97.9336 33.0366 98.1529 32.4413C98.8328 32.4413 104.861 32.4413 105.736 32.4413C105.905 33.2275 106.441 35.8006 106.441 35.8006H111.909L107.144 13.406V13.406Z" fill="#00579F"/>
<path d="M59.7543 13.406L53.9702 28.6772L53.3382 25.58C52.2688 22.0063 48.9151 18.1235 45.1725 16.1928L50.4705 35.7772H56.7161L65.9996 13.406H59.7543V13.406Z" fill="#00579F"/>
<path d="M48.5997 13.406H39.0972L39 13.8585C46.4125 15.7169 51.3217 20.1966 53.3386 25.581L51.2729 15.2885C50.9328 13.8582 49.8877 13.4532 48.5997 13.406Z" fill="#FAA61A"/>
</g>
</svg>
